/* XPM */
static const char * line_xpm[] = {
/* columns rows colors chars-per-pixel */
"128 128 2 1 ",
"  c None",
". c black",
/* pixels */
"                                                                                                                                ",
"                                                                                                                                ",
"                                                                                                                                ",
"                                                                                                                                ",
"                                                                                                                                ",
"                                                                                                                                ",
"                                                                                                                                ",
"                                                                                                                                ",
"                                                                                                                                ",
"                                                                                                                                ",
"                                                                                                                                ",
"                                                                                                                                ",
"                                                                                                                                ",
"                                                                                                                                ",
"                                                                                                                                ",
"                                                                                                                                ",
"                                                                                                                                ",
"                                                                                                                                ",
"                                                                                                                                ",
"                                                                                                                                ",
"                                                                                                                                ",
"                                                                                                                                ",
"                                                                                                                                ",
"                                                                                                                                ",
"                                                                                    .........                                   ",
"                                                                                  .............                                 ",
"                                                                                .................                               ",
"                                                                               ...................                              ",
"                                                                              .....................                             ",
"                                                                             .......................                            ",
"                                                                            .........................                           ",
"                                                                            ..........................                          ",
"                                                                           ...........................                          ",
"                                                                           ............................                         ",
"                                                                          .............................                         ",
"                                                                          .............................                         ",
"                                                                          .............................                         ",
"                                                                          ..............................                        ",
"                                                                          ..............................                        ",
"                                                                          ..............................                        ",
"                                                                          .............................                         ",
"                                                                          .............................                         ",
"                                                                          .............................                         ",
"                                                                         ..............................                         ",
"                                                                        ...............................                         ",
"                                                                       ...............................                          ",
"                                                                      ...............................                           ",
"                                                                     ................................                           ",
"                                                                    ................................                            ",
"                                                                   ................................                             ",
"                                                                  ................................                              ",
"                                                                 ................................                               ",
"                                                                ...............................                                 ",
"                                                               ..................... .......                                    ",
"                                                              .....................                                             ",
"                                                             .....................                                              ",
"                                                            .....................                                               ",
"                                                           .....................                                                ",
"                                                          .....................                                                 ",
"                                                         .....................                                                  ",
"                                                        .....................                                                   ",
"                                                       .....................                                                    ",
"                                                      .....................                                                     ",
"                                                     .....................                                                      ",
"                                                    .....................                                                       ",
"                                                   .....................                                                        ",
"                                                  .....................                                                         ",
"                                                 .....................                                                          ",
"                                                .....................                                                           ",
"                                               .....................                                                            ",
"                                              .....................                                                             ",
"                                             .....................                                                              ",
"                                            .....................                                                               ",
"                                           .....................                                                                ",
"                                   ............................                                                                 ",
"                                ..............................                                                                  ",
"                              ...............................                                                                   ",
"                             ...............................                                                                    ",
"                            ...............................                                                                     ",
"                           ...............................                                                                      ",
"                          ...............................                                                                       ",
"                          ..............................                                                                        ",
"                         ..............................                                                                         ",
"                        ..............................                                                                          ",
"                        .............................                                                                           ",
"                        .............................                                                                           ",
"                        .............................                                                                           ",
"                        .............................                                                                           ",
"                       ..............................                                                                           ",
"                       ..............................                                                                           ",
"                       ..............................                                                                           ",
"                        .............................                                                                           ",
"                        .............................                                                                           ",
"                        .............................                                                                           ",
"                        ............................                                                                            ",
"                         ...........................                                                                            ",
"                         ..........................                                                                             ",
"                          .........................                                                                             ",
"                           .......................                                                                              ",
"                            .....................                                                                               ",
"                             ...................                                                                                ",
"                              .................                                                                                 ",
"                                .............                                                                                   ",
"                                  .........                                                                                     ",
"                                                                                                                                ",
"                                                                                                                                ",
"                                                                                                                                ",
"                                                                                                                                ",
"                                                                                                                                ",
"                                                                                                                                ",
"                                                                                                                                ",
"                                                                                                                                ",
"                                                                                                                                ",
"                                                                                                                                ",
"                                                                                                                                ",
"                                                                                                                                ",
"                                                                                                                                ",
"                                                                                                                                ",
"                                                                                                                                ",
"                                                                                                                                ",
"                                                                                                                                ",
"                                                                                                                                ",
"                                                                                                                                ",
"                                                                                                                                ",
"                                                                                                                                ",
"                                                                                                                                ",
"                                                                                                                                ",
"                                                                                                                                "
};
